#!OML:ASF I:\Actors\actors\Patient Classification 2\Patient 1\Session 1\actor1.ASF
:FULLY-SPECIFIED
:DEGREES
641
root -0.459445 18.816 4.54394 4.97497 4.12279 -2.55273
lowerback 8.79387 5.56023 -1.68046
upperback -2.06669 7.12906 -1.53085
thorax -7.09777 3.52612 -1.72603
lowerneck -16.9624 -9.74526 -4.37983
upperneck 19.2237 -14.7535 10.1588
head 10.0432 -6.06678 2.13566
rclavicle 7.80727e-014 -6.36111e-015
rhumerus 49.4656 14.8445 -47.7743
rradius 72.6347
rwrist 38.5763
rhand -40.4286 -50.354
rfingers 7.12502
rthumb -13.3809 -79.9043
lclavicle 7.80727e-014 -6.36111e-015
lhumerus -9.62623 -43.5813 84.3475
lradius 118.999
lwrist 49.6864
lhand -20.1191 -20.1512
lfingers 7.12502
lthumb 6.22486 9.73733
rfemur 0 0 0
rtibia 0
rfoot 0 0
rtoes 0
lfemur -11.9429 -7.60266 -12.0331
ltibia 24.3487
lfoot -19.6759 8.88142
ltoes -55.5895
642
root -0.470227 18.8155 4.55271 4.88821 3.97289 -2.56107
lowerback 8.70246 5.45365 -1.75806
upperback -2.13347 6.98317 -1.48385
thorax -7.13331 3.45915 -1.60846
lowerneck -16.8927 -9.64031 -4.35624
upperneck 19.3156 -14.6201 10.1337
head 10.048 -6.0058 2.14757
rclavicle -1.2424e-015 -2.54444e-014
rhumerus 48.5381 14.404 -47.3134
rradius 73.1792
rwrist 38.4742
rhand -40.2411 -50.6931
rfingers 7.12502
rthumb -13.2002 -80.2552
lclavicle -1.2424e-015 -2.54444e-014
lhumerus -9.85813 -43.4651 84.2826
lradius 119.053
lwrist 49.6193
lhand -19.991 -20.2417
lfingers 7.12502
lthumb 6.34849 9.6432
rfemur 0 0 0
rtibia 0
rfoot 0 0
rtoes 0
lfemur -11.7693 -7.53673 -12.011
ltibia 24.324
lfoot -19.7253 8.9077
ltoes -55.5929
643
root -0.481646 18.8139 4.56111 4.79467 3.80739 -2.58315
lowerback 8.60474 5.36385 -1.85328
upperback -2.18452 6.86144 -1.38714
thorax -7.15609 3.40608 -1.43165
lowerneck -16.7502 -9.54517 -4.3097
upperneck 19.307 -14.4706 10.0134
head 9.99162 -5.95392 2.12976
rclavicle 3.23522e-014 -1.66979e-014
rhumerus 47.5953 13.8322 -46.7316
rradius 73.6252
rwrist 38.3592
rhand -39.117 -51.1123
rfingers 7.12502
rthumb -12.1165 -80.7415
lclavicle 3.23522e-014 -1.66979e-014
lhumerus -10.0901 -43.3692 84.3593
lradius 119.076
lwrist 49.5726
lhand -19.9805 -20.1977
lfingers 7.12502
lthumb 6.35862 9.68689
rfemur 0 0 0
rtibia 0
rfoot 0 0
rtoes 0
lfemur -11.5835 -7.53847 -11.9766
ltibia 24.3079
lfoot -19.8218 9.01007
ltoes -55.5574
644
root -0.492006 18.8111 4.5685 4.69874 3.65527 -2.61341
lowerback 8.5111 5.25539 -1.94277
upperback -2.22894 6.71816 -1.25173
thorax -7.17727 3.34321 -1.21461
lowerneck -16.566 -9.45361 -4.29063
upperneck 19.2794 -14.2964 9.80939
head 9.91347 -5.90441 2.09329
rclavicle -5.45664e-014 1.43125e-014
rhumerus 46.7451 13.1764 -45.9069
rradius 73.9883
rwrist 38.0736
rhand -38.8843 -51.0792
rfingers 7.12502
rthumb -11.8921 -80.7214
lclavicle -5.45664e-014 1.43125e-014
lhumerus -10.3877 -43.2215 84.4546
lradius 119.108
lwrist 49.5841
lhand -20.0071 -20.1136
lfingers 7.12502
lthumb 6.333 9.77177
rfemur 0 0 0
rtibia 0
rfoot 0 0
rtoes 0
lfemur -11.3936 -7.57325 -11.9391
ltibia 24.2919
lfoot -19.9077 9.14878
ltoes -55.583
645
root -0.502385 18.808 4.57441 4.60529 3.49649 -2.60923
lowerback 8.4126 5.1472 -2.05375
upperback -2.27579 6.57165 -1.1373
thorax -7.19705 3.27937 -1.0069
lowerneck -16.3248 -9.37683 -4.23374
upperneck 19.2646 -14.1412 9.54667
head 9.82336 -5.86881 2.03031
rclavicle -7.17116e-014 9.54166e-015
rhumerus 45.7963 12.4372 -45.2616
rradius 74.1715
rwrist 37.8424
rhand -39.3058 -50.9127
rfingers 7.12502
rthumb -12.2985 -80.531
lclavicle -7.17116e-014 9.54166e-015
lhumerus -10.6756 -43.0738 84.515
lradius 119.112
lwrist 49.5636
lhand -19.9542 -20.1462
lfingers 7.12502
lthumb 6.38404 9.73758
rfemur 0 0 0
rtibia 0
rfoot 0 0
rtoes 0
lfemur -11.2121 -7.54817 -11.9397
ltibia 24.2774
lfoot -19.9542 9.28662
ltoes -55.646
